<?xml version="1.0" encoding="UTF-8" standalone="no"?>
<!DOCTYPE svg PUBLIC "-//W3C//DTD SVG 1.1//EN" "http://www.w3.org/Graphics/SVG/1.1/DTD/svg11.dtd">
<svg xmlns="http://www.w3.org/2000/svg" xmlns:dc="http://purl.org/dc/elements/1.1/" xmlns:xl="http://www.w3.org/1999/xlink" version="1.1" viewBox="8 10 3168 782" width="3168" height="782">
  <defs/>
  <g id="Canvas_1" stroke-opacity="1" stroke="none" fill-opacity="1" stroke-dasharray="none" fill="none">
    <title>Canvas 1</title>
    <g id="Canvas_1_Layer_1">
      <title>Layer 1</title>
      <g id="Graphic_3">
        <path d="M 784.7108 456.5955 C 781.2633 480.77673 775.7807 504.06647 767.8856 526.6932 C 757.6552 556.0124 744.475 583.9389 727.5729 610.1306 C 716.6239 627.0973 704.6728 643.19574 691.2613 658.2573 C 670.13165 681.9866 646.8533 703.2089 620.58466 721.2521 C 592.8652 740.29175 563.43585 755.6904 531.8154 767.17615 C 509.5483 775.2643 486.9665 781.9246 463.4691 784.9336 C 446.7115 787.0795 429.8469 788.4074 413.01773 789.9672 C 407.1043 790.5153 401.1083 791.3051 395.2292 790.8827 C 376.71432 789.5523 358.2079 787.9696 339.75223 785.9829 C 313.86462 783.1961 289.02072 775.9706 264.5886 767.2338 C 238.4038 757.8702 213.64912 745.6348 190.13907 730.7471 C 170.56769 718.35346 152.42183 704.2301 135.16539 688.7919 C 107.49909 664.0409 84.45131 635.5451 65.055046 604.0348 C 52.209515 583.16656 41.594746 561.1941 32.878368 538.2441 C 24.70666 516.7282 18.7613 494.61755 14.228569 472.14325 C 12.001184 461.09936 10.852871 449.76935 10.113489 438.5099 C 8.996986 421.50754 7.620163 404.41275 8.284877 387.43283 C 8.994814 369.29773 11.038051 351.0912 14.17099 333.20868 C 17.418537 314.672 21.98355 296.28537 27.27419 278.21423 C 31.141567 265.0045 36.61872 252.1887 42.263287 239.5939 C 51.88093 218.13397 63.04402 197.43042 77.00574 178.44382 C 86.30647 165.79571 96.11335 153.49188 106.20674 141.4645 C 112.80487 133.60214 119.82033 125.93727 127.53313 119.19559 C 142.47513 106.13492 157.69164 93.33229 173.43648 81.26021 C 193.33807 66.000984 215.53395 54.41161 238.28244 44.02562 C 261.2601 33.535015 285.0813 25.196722 309.84674 20.147806 C 326.61914 16.728422 343.58905 13.827275 360.61466 12.223808 C 378.55032 10.534631 396.69336 9.652751 414.67893 10.294003 C 431.48084 10.893053 448.2152 13.797507 464.94287 15.967617 C 486.6662 18.785822 507.63574 24.788364 528.2346 32.025173 C 555.8525 41.72786 582.0549 54.36886 606.7706 70.16087 C 627.2767 83.26314 646.2601 98.16887 664.2714 114.53641 C 679.85 128.69325 693.4456 144.45956 706.4865 160.86336 C 721.1731 179.33717 733.652 199.15715 744.5767 220.04446 C 760.3522 250.20644 772.38965 281.71173 778.9998 315.14313 C 781.7502 329.0543 784.0595 343.07715 785.8896 357.13766 C 787.1845 367.08655 787.3107 377.1859 788.01465 387.21414 C 788.256 390.6541 789.14 394.1125 788.9218 397.5106 C 787.7609 415.5832 786.3376 433.639 785.0243 451.702 C 784.9158 453.1943 784.9498 454.697 784.7108 456.5955 Z M 672.0767 257.4142 C 671.1694 255.87237 670.19745 254.36465 669.3646 252.78363 C 657.40076 230.07068 642.4213 209.40956 624.9404 190.76 C 614.3509 179.46265 602.504 169.25925 590.62805 159.2706 C 567.9747 140.21724 542.4608 125.85148 515.13043 114.52785 C 477.14645 98.7902 437.4838 91.57648 396.57315 91.17065 C 384.78677 91.05372 372.98026 92.9938 361.1826 93.98656 C 343.0653 95.5111 325.48813 99.66187 308.14862 104.93935 C 285.6279 111.79381 264.29096 121.30728 243.82776 132.96017 C 225.5508 143.36813 208.4692 155.4829 193.10933 169.69975 C 180.97484 180.93124 169.919 193.38037 158.8864 205.7372 C 144.3386 222.0312 133.10214 240.67717 123.12259 259.98343 C 114.073 277.4906 107.09686 295.8813 101.47377 314.8412 C 93.39973 342.06515 89.74038 369.9174 89.2156 398.1273 C 88.96249 411.73407 90.775 425.40366 92.04347 439.00827 C 93.77412 457.56973 98.20435 475.58646 103.70487 493.36966 C 110.28782 514.65234 119.61975 534.69 130.51764 554.0667 C 141.72049 573.98566 155.18213 592.30566 170.71063 608.96014 C 180.39897 619.35095 191.15192 628.7933 201.82155 638.2146 C 217.93189 652.44 236.01732 663.8842 254.9455 673.941 C 278.9326 686.68555 304.2477 696.2048 330.80707 701.7148 C 347.4192 705.1612 364.3811 707.8399 381.29337 708.66565 C 398.58395 709.5098 416.04285 708.1564 433.35657 706.83105 C 444.54703 705.9745 455.74173 704.0252 466.70316 701.5437 C 497.0812 694.6663 525.69904 683.1423 552.76776 667.6998 C 575.10284 654.9578 595.23016 639.2652 613.714 621.5503 C 622.6165 613.0182 630.9949 603.72986 638.3579 593.8503 C 649.1574 579.3598 659.7927 564.58264 668.7731 548.9376 C 684.0155 522.3836 694.7991 493.80997 700.46436 463.67175 C 703.6637 446.65195 705.8603 429.3083 706.7064 412.02234 C 707.4469 396.89325 706.16126 381.598 704.8431 366.4569 C 703.8404 354.9402 701.9025 343.4383 699.4672 332.12646 C 693.8911 306.2262 684.431 281.6603 672.0767 257.4142 Z" fill="#f26722"/>
      </g>
      <g id="Graphic_4">
        <path d="M 2424.2827 415.95904 C 2411.2522 412.8816 2399.1736 408.42804 2388.6226 400.8174 C 2367.2632 385.4102 2353.575 364.65875 2349.2126 338.69733 C 2344.659 311.5976 2349.8018 285.94534 2366.2854 263.63342 C 2381.5725 242.94128 2402.1196 230.00247 2427.9353 225.94154 C 2443.7007 223.46156 2459.2168 224.24464 2474.3516 229.09994 C 2486.381 232.95904 2497.211 239.15272 2506.983 247.3525 C 2517.348 256.0502 2525.0703 266.65677 2531.102 278.55926 C 2536.228 288.675 2538.766 299.51926 2540.1313 310.82883 C 2542.5532 330.88403 2538.768 349.5905 2529.3127 367.19244 C 2515.5955 392.7281 2494.4436 408.50714 2466.1707 415.1419 C 2452.3152 418.3934 2438.5933 418.60007 2424.2827 415.95904 Z M 2505 324.32764 C 2505.4636 313.29806 2503.5403 302.5995 2497.9094 293.1765 C 2484.1782 270.19803 2464.382 257.90082 2436.8245 261.0313 C 2414.6487 263.5504 2399.0977 276.08792 2389.4924 295.43213 C 2381.8425 310.83792 2381.594 327.25626 2387.992 343.52826 C 2396.7354 365.7651 2417.7266 380.6183 2440.4814 381.88345 C 2460.046 382.97116 2476.396 375.65463 2489.6033 360.9967 C 2498.8408 350.74475 2503.5242 338.751 2505 324.32764 Z" fill="#f26722"/>
      </g>
      <g id="Graphic_5">
        <path d="M 1506.9678 236.9942 C 1519.8954 245.94224 1528.1616 257.74472 1531.4062 272.86047 C 1535.3828 291.38608 1530.9375 307.79047 1518.4825 321.98242 C 1511.8004 329.59674 1503.6104 335.22186 1493.7349 339.27283 C 1497.262 346.11304 1500.5579 352.76224 1504.0844 359.2868 C 1510.2915 370.77127 1516.6476 382.17517 1522.924 393.6222 C 1524.962 397.33853 1527.0685 401.02444 1528.9277 404.8298 C 1532.1847 411.49603 1530.0197 414.9936 1522.7859 414.99893 C 1514.9553 415.0047 1507.1027 414.6442 1499.3021 415.1284 C 1494.3019 415.4388 1491.9905 413.2874 1489.9613 409.16293 C 1479.4955 387.88907 1468.7593 366.74826 1458.278 345.4819 C 1457.0249 342.93942 1455.7722 341.83807 1452.824 341.921 C 1444.712 342.14923 1436.5894 341.99985 1428.0007 341.99985 C 1428.0007 349.41952 1428.0007 356.3717 1428.0007 363.32385 C 1428.0007 377.81873 1428.0171 392.31366 1427.9932 406.8085 C 1427.9825 413.2246 1426.1803 414.9946 1419.8146 414.9992 C 1413.3169 415.0038 1406.8192 415.00354 1400.3215 414.9994 C 1393.0059 414.9947 1392.002 414.01343 1392.0017 406.8162 C 1391.9989 353.16846 1392.0001 299.52072 1392.0001 245.873 C 1392.0001 241.7078 1392.026 237.5424 1391.994 233.37747 C 1391.961 229.07446 1394.0482 226.99042 1398.3585 226.993 C 1424.6825 227.00867 1451.013 226.66626 1477.3274 227.1651 C 1487.819 227.36398 1497.8951 230.52675 1506.9678 236.9942 Z M 1428.0228 261.77072 C 1428.0228 278.35718 1428.0228 294.94363 1428.0228 311.99942 C 1442.5715 311.99942 1456.6757 311.65448 1470.7549 312.09552 C 1485.1053 312.54507 1496.6395 299.32727 1496.899 286.2773 C 1497.1781 272.25287 1485.7576 260.48202 1470.2665 260.07007 C 1457.467 259.72974 1444.6511 259.9783 1431.8429 260.03653 C 1430.6078 260.04214 1429.3751 260.54794 1428.0228 261.77072 Z" fill="#f26722"/>
      </g>
      <g id="Graphic_6">
        <path d="M 1694 279 C 1694 263.67233 1693.9816 248.84467 1694.0095 234.01706 C 1694.0201 228.36426 1695.356 227.03653 1700.9895 227.00919 C 1708.32 226.9736 1715.6506 226.97824 1722.981 227.00818 C 1727.991 227.02866 1729.9855 228.89778 1729.9882 233.7152 C 1730.0092 272.86688 1730.491 312.02783 1729.752 351.16556 C 1729.4667 366.2769 1722.9307 379.83215 1713.0052 391.54544 C 1701.5698 405.0409 1686.9937 413.2588 1669.8627 416.4879 C 1651.4562 419.9575 1633.834 417.095 1617.283 407.86417 C 1603.9226 400.41287 1594.1567 389.69315 1587.6533 376.0676 C 1583.4877 367.34033 1580.9541 358.0758 1580.972 348.2139 C 1581.041 310.39517 1581.0968 272.57577 1580.904 234.7579 C 1580.872 228.50105 1581.9796 226.8872 1589.0588 226.9813 C 1595.7217 227.06986 1602.3868 226.99437 1609.0509 227.00198 C 1615.4554 227.0093 1616.9966 228.5086 1616.9974 234.784 C 1617.003 270.77023 1616.5781 306.7632 1617.1516 342.74026 C 1617.5206 365.89053 1633.4334 383.3331 1658.0486 381.81692 C 1676.6962 380.66833 1691.5105 367.60358 1692.7275 348.7404 C 1694.212 325.72867 1693.6671 302.58603 1694 279 Z" fill="#f26722"/>
      </g>
      <g id="Graphic_7">
        <path d="M 2776 415.00028 C 2768.0017 415.0002 2760.5032 415.0226 2753.005 414.99225 C 2748.0137 414.9721 2746.0132 413.08783 2746.0117 408.26914 C 2745.994 350.11523 2745.995 291.96136 2746.0103 233.80746 C 2746.0115 228.99348 2748.0383 227.01184 2752.9294 227.0095 C 2788.255 226.9926 2823.5806 226.99338 2858.9062 227.00795 C 2864.1953 227.01013 2865.9697 228.82104 2865.994 234.14326 C 2866.0205 239.9752 2866.003 245.80734 2865.999 251.6394 C 2865.994 258.98547 2865.014 259.9974 2857.853 259.99872 C 2834.525 260.00293 2811.1965 260.00028 2787.8684 260.00028 C 2786.078 260.00028 2784.288 260.0003 2782.2522 260.0003 C 2782.2522 274.3829 2782.2522 288.3171 2782.2522 302.99966 C 2783.9502 302.99966 2785.7007 302.9997 2787.4512 302.9997 C 2806.7803 302.99976 2826.1094 302.99307 2845.4385 303.0039 C 2851.371 303.00723 2852.986 304.65854 2852.9973 310.6747 C 2853.009 317.0066 2852.9773 323.33865 2853.0066 329.67047 C 2853.027 334.0586 2851.398 336.14908 2846.51 336.0927 C 2827.017 335.8677 2807.5195 335.99997 2788.024 336 C 2786.2197 336 2784.4153 336 2782.307 336 C 2782.307 351.39145 2782.307 366.4428 2782.307 382.00024 C 2786.0537 382.00024 2789.6736 382.00024 2793.2932 382.00024 C 2814.955 382.00024 2836.6172 381.99567 2858.279 382.0032 C 2864.3254 382.0053 2865.9814 383.6207 2865.9963 389.51446 C 2866.0122 395.67975 2866.0276 401.84524 2865.9917 408.01034 C 2865.9587 413.64536 2864.636 414.9868 2858.982 414.991 C 2831.488 415.01144 2803.994 415.00024 2776 415.00028 Z" fill="#f26722"/>
      </g>
      <g id="Graphic_8">
        <path d="M 2046.2407 303.47015 C 2042.749 316.91605 2043.0176 329.8578 2048.0352 342.43722 C 2056.7078 364.18045 2072.215 377.55237 2095.791 381.04096 C 2113.0442 383.59393 2127.9133 378.14664 2141.457 368.01965 C 2147.1594 363.75604 2148.205 363.71756 2153.3953 368.9035 C 2157.7559 373.26053 2162.1357 377.59787 2166.4763 381.97464 C 2170.1223 385.6512 2170.2368 389.5153 2166.4436 393.0176 C 2153.6924 404.79065 2138.789 412.5707 2121.7576 415.90933 C 2099.5283 420.26675 2078.063 417.57397 2057.8306 407.31436 C 2030.784 393.5992 2013.6993 371.4735 2007.3176 342.13034 C 2000.7318 311.8497 2007.4932 283.7025 2027.1498 259.64468 C 2042.3596 241.0294 2062.167 229.38724 2086.4368 225.93167 C 2111.8047 222.31972 2135.549 225.78053 2156.7837 241.00687 C 2160.506 243.67586 2163.9966 246.72525 2167.2996 249.90492 C 2170.158 252.65648 2169.8977 255.66565 2167.0027 258.5082 C 2161.8918 263.5263 2156.745 268.51794 2151.8564 273.74832 C 2148.7578 277.06348 2145.664 276.6638 2142.7544 274.13538 C 2130.5706 263.54764 2116.431 258.388 2100.3762 259.0598 C 2082.4316 259.81073 2067.7744 267.68124 2057.2107 281.9951 C 2052.582 288.2666 2049.952 296.0129 2046.2407 303.47015 Z" fill="#f26722"/>
      </g>
      <g id="Graphic_9">
        <path d="M 1001.797 370.28073 C 1011.2949 377.57507 1022.0526 381.03665 1033.3286 381.765 C 1045.4249 382.54633 1056.9656 379.2451 1067.4553 372.97327 C 1070.9452 370.88657 1073.9712 367.9497 1077.5922 366.18918 C 1079.293 365.36227 1082.6454 365.56375 1083.9689 366.74 C 1089.686 371.8214 1095.0422 377.32947 1100.3011 382.89813 C 1103.2097 385.9781 1103.1174 389.52655 1099.967 392.4663 C 1086.6409 404.9013 1071.2086 413.2844 1053.0237 415.9546 C 1046.2131 416.95465 1039.2677 418.19464 1032.4601 417.8438 C 1009.8835 416.6802 989.475 409.719 971.9766 394.63724 C 955.4946 380.43137 944.7654 362.941 940.5084 341.8194 C 935.4852 316.89624 938.9448 293.09866 952.372 271.09097 C 965.1099 250.21292 982.953 235.7754 1006.4879 229.01703 C 1014.2539 226.7869 1022.4799 225.94777 1030.5605 225.0717 C 1043.862 223.62958 1056.8711 225.52025 1069.447 230.02745 C 1080.9529 234.15115 1090.7948 241.1235 1100.1455 248.78918 C 1102.944 251.08348 1102.6658 255.67294 1100.0192 258.4532 C 1094.9867 263.73965 1090.0552 269.13022 1084.8428 274.23352 C 1082.5874 276.4417 1079.8563 276.95245 1076.9613 274.57446 C 1068.8057 267.87537 1059.7601 262.99115 1049.3181 260.6269 C 1029.2222 256.07678 1011.7225 260.9312 996.7637 274.80804 C 983.286 287.31107 976.8134 303.18945 977.1339 321.36337 C 977.4846 341.24524 985.7435 357.64566 1001.797 370.28073 Z" fill="#f26722"/>
      </g>
      <g id="Graphic_10">
        <path d="M 3128.975 380.00494 C 3138.622 371.1252 3137.753 360.5057 3130.0935 351.67508 C 3121.863 342.1866 3110.3474 337.7923 3099.1982 333.1849 C 3087.5945 328.38944 3076.58 322.53772 3067.6414 313.89282 C 3047.1675 294.09192 3046.3762 261.0426 3065.9226 241.4955 C 3077.376 230.04172 3091.264 225.79913 3107.078 224.84148 C 3128.7324 223.53014 3147.8083 229.86295 3165.4377 241.7787 C 3169.222 244.33665 3170.3237 248.00328 3167.983 251.85197 C 3164.598 257.41855 3160.9695 262.84744 3157.2285 268.18347 C 3154.861 271.56104 3150.0364 272.09256 3146.26 269.78513 C 3136.7803 263.99292 3126.9634 259.0251 3116.0332 256.4498 C 3107.965 254.54884 3096.4705 258.24185 3091.9436 263.99295 C 3083.4697 274.75854 3089.2405 286.25372 3097.6323 291.60983 C 3107.0205 297.60205 3117.3518 302.1812 3127.4773 306.9394 C 3142.8484 314.16244 3157.7505 321.8208 3167.3657 336.74686 C 3178.568 354.13626 3177.816 377.9452 3164.812 394.6484 C 3153.9468 408.6049 3139.347 415.15204 3121.9307 417.1574 C 3103.4 419.29114 3086.139 415.57523 3069.672 407.72156 C 3064.1636 405.0943 3059.5012 400.67056 3054.508 396.99225 C 3050.851 394.2984 3050.6624 391.0059 3052.9377 387.241 C 3055.6328 382.7816 3058.0315 378.13864 3060.8232 373.7434 C 3065.1606 366.91544 3067.4258 366.89008 3074.413 370.762 C 3083.3306 375.70374 3092.4194 380.53336 3101.902 384.2038 C 3111.171 387.7918 3120.5415 386.84064 3128.975 380.00494 Z" fill="#f26722"/>
      </g>
      <g id="Graphic_11">
        <path d="M 2677.4712 270.97967 C 2671.0295 271.7842 2667.21 267.18665 2662.454 264.90945 C 2653.1826 260.4699 2644.0835 255.3468 2633.3423 256.06 C 2624.2896 256.66104 2614.19 261.66238 2612.6572 272.8101 C 2611.667 280.01062 2615.0908 285.4102 2620.2666 290.08975 C 2630.737 299.55606 2644.202 303.19464 2656.557 308.97244 C 2671.6904 316.0492 2685.6626 324.9416 2693.7603 339.87762 C 2703.9373 358.64917 2701.6038 381.5558 2686.3972 398.0638 C 2675.5906 409.79526 2662.0068 415.4926 2646.17 417.1187 C 2621.5325 419.64847 2599.6555 413.3013 2580.03 398.4991 C 2575.1536 394.821 2574.7886 391.7157 2578.1768 386.26797 C 2581.0134 381.7072 2583.607 376.99384 2586.2593 372.3203 C 2588.9775 367.53015 2592.579 366.5987 2597.2117 369.76202 C 2607.6423 376.8845 2618.6528 382.81546 2631.0823 385.5301 C 2642.302 387.98053 2655.8333 382.73505 2659.1345 371.4101 C 2662.0596 361.37613 2659.2935 353.0523 2649.8486 347.2496 C 2636.8574 339.26816 2622.6848 333.23492 2609.2263 325.98135 C 2593.8718 317.70602 2582.1423 306.3895 2577.765 288.54016 C 2571.0012 260.96164 2587.603 233.68338 2615.9373 227.04314 C 2642.3154 220.8612 2666.588 226.23096 2689.1187 240.94316 C 2693.5303 243.82387 2694.4932 248.24414 2692.486 251.58797 C 2688.3452 258.48486 2682.827 264.55475 2677.4712 270.97967 Z" fill="#f26722"/>
      </g>
      <g id="Graphic_12">
        <path d="M 1891.7786 391.7281 C 1883.0815 405.0749 1870.5632 412.48563 1855.8832 415.80566 C 1834.7363 420.5882 1814.1808 417.3824 1794.8914 407.78586 C 1788.7076 404.70944 1783.3853 399.76816 1778.0416 395.24026 C 1776.862 394.24103 1776.3807 390.96463 1777.0916 389.4446 C 1779.8458 383.55484 1783.0188 377.8337 1786.4062 372.27557 C 1789.4243 367.3237 1793.3798 367.49536 1799.4705 370.82397 C 1808.2766 375.63654 1817.3142 380.1095 1826.5504 384.02573 C 1834.4243 387.3644 1842.4442 386.7645 1850.1151 382.4635 C 1861.7314 375.95016 1864.7988 362.51312 1854.98 351.5485 C 1846.507 342.08636 1834.8372 337.86975 1823.5858 332.9879 C 1808.4467 326.41907 1794.0697 318.6653 1784.8223 304.24417 C 1774.88 288.7394 1773.93 272.14096 1781.3121 255.57736 C 1788.9454 238.45045 1803.0216 229.21687 1821.3483 225.95012 C 1845.7372 221.6028 1867.8795 227.48285 1888.5547 240.2561 C 1894.9382 244.19983 1895.5664 247.9222 1891.4072 254.1699 C 1888.607 258.37607 1885.8387 262.6035 1883.0347 266.807 C 1879.9537 271.42545 1875.6559 272.2892 1870.8807 269.46777 C 1861.4723 263.9086 1851.817 258.95587 1841.0367 256.44855 C 1832.47 254.456 1818.1667 258.3834 1814.288 268.09158 C 1811.872 274.13867 1813.1438 282.38467 1818.1477 287.6574 C 1825.8002 295.72055 1835.6274 300.03586 1845.7026 304.0584 C 1859.2452 309.4654 1872.3104 315.89096 1883.2 325.78674 C 1901.4083 342.33347 1905.9606 369.54837 1891.7786 391.7281 Z" fill="#f26722"/>
      </g>
      <g id="Graphic_13">
        <path d="M 1306.0001 359 C 1306.0001 375.492 1306.0082 391.484 1305.9958 407.476 C 1305.9913 413.37585 1304.3276 414.9883 1298.2926 414.9977 C 1291.2961 415.00867 1284.2996 415.01587 1277.3031 414.9951 C 1271.7633 414.9787 1270.0057 413.2007 1270.0048 407.57126 C 1269.9967 360.59473 1270.0001 313.61822 1270.0001 266.6417 C 1270.0001 264.6591 1270.0001 262.67648 1270.0001 260.23367 C 1268.1738 260.14874 1266.5779 260.0128 1264.9816 260.0102 C 1253.4873 259.99152 1241.9926 259.93778 1230.499 260.0305 C 1225.9358 260.06732 1223.8915 258.06265 1223.971 253.49313 C 1224.087 246.83183 1224.0253 240.16686 1223.9923 233.5037 C 1223.9697 228.94496 1226.2599 226.9787 1230.7308 226.9824 C 1268.8784 227.0141 1307.026 226.99243 1345.1736 227.01062 C 1349.9874 227.0129 1351.9626 229.0421 1351.9912 233.90758 C 1352.0264 239.9044 1352.0044 245.90154 1351.9987 251.89854 C 1351.9918 258.9019 1350.9343 259.99313 1344.0978 259.99783 C 1331.6241 260.0064 1319.1506 260.00028 1306.0001 260.00028 C 1306.0001 293.01556 1306.0001 325.7578 1306.0001 359 Z" fill="#f26722"/>
      </g>
      <g id="Graphic_14">
        <path d="M 2942 289 C 2942 279.1979 2942 269.89584 2942 260.00024 C 2930.8796 260.00024 2920.108 260.0055 2909.3364 259.99896 C 2894.5164 259.98996 2896.0132 261.48367 2896.0005 246.6603 C 2895.9966 241.9938 2896.217 237.31413 2895.934 232.66486 C 2895.6916 228.67831 2897.8403 227.4061 2901.1626 227.02425 C 2902.15 226.9108 2903.1604 227.00067 2904.1604 227.00066 C 2940.9924 227.0003 2977.8245 227.0189 3014.6565 226.98663 C 3023.324 226.97903 3023.3118 228.97902 3023.0544 235.47408 C 3022.8042 241.79727 3022.892 248.14062 3023.0383 254.47034 C 3023.132 258.54657 3021.3474 260.08597 3017.3523 260.04282 C 3006.0208 259.92032 2994.687 260.00015 2983.354 260.0003 C 2981.7317 260.00034 2980.1094 260.00028 2978.0005 260.00028 C 2978.0005 262.40735 2978.0005 264.35956 2978.0005 266.31174 C 2978.0005 312.81006 2978.002 359.30835 2977.999 405.80667 C 2977.9985 413.58884 2976.581 414.9991 2968.811 415 C 2961.978 415.0008 2955.1448 414.97943 2948.3118 415.00678 C 2943.9155 415.02435 2941.8904 413.3672 2941.91 408.4952 C 2942.07 368.83066 2942 329.1652 2942 289 Z" fill="#f26722"/>
      </g>
      <g id="Graphic_15">
        <path d="M 2251.0005 252.00023 C 2251.0005 295.45728 2251.0005 338.4144 2251.0005 382.0003 C 2253.0847 382.0003 2254.851 382.0003 2256.6174 382.0003 C 2276.6104 382.00037 2296.603 381.99384 2316.596 382.005 C 2321.7134 382.00787 2323.881 383.96985 2323.972 388.9746 C 2324.0867 395.30353 2324.0823 401.63757 2323.974 407.96677 C 2323.887 413.03757 2321.7703 414.9936 2316.6548 414.9952 C 2285.1663 415.0049 2253.6775 415.00815 2222.189 414.99295 C 2216.3271 414.9901 2215.0068 413.64185 2215.0059 407.683 C 2214.996 349.8705 2214.9968 292.058 2215.0059 234.24553 C 2215.0066 228.93703 2216.848 227.032 2221.9888 227.00874 C 2229.1528 226.97632 2236.3174 226.95288 2243.4807 227.01646 C 2248.8604 227.0642 2250.923 229.1337 2250.985 234.5065 C 2251.0505 240.1704 2251.0002 245.83563 2251.0005 252.00023 Z" fill="#f26722"/>
      </g>
      <g id="Graphic_16">
        <path d="M 1155.3491 227.0003 C 1162.9708 227.00035 1170.1317 227.0451 1177.2917 226.98422 C 1181.7643 226.9462 1184.0104 228.96947 1184.0093 233.52214 C 1183.994 291.80533 1183.993 350.0885 1184.012 408.37167 C 1184.0134 412.86676 1181.9063 415.03577 1177.3998 415.0114 C 1169.74 414.9699 1162.0796 414.9749 1154.4197 415.0095 C 1150.1405 415.0288 1147.9955 413.00806 1147.996 408.69083 C 1148.0032 350.2411 1148.0056 291.7914 1147.992 233.34172 C 1147.991 228.6602 1150.4945 226.83592 1155.3491 227.0003 Z" fill="#f26722"/>
      </g>
      <g id="Graphic_17">
        <path d="M 1836.579 576.0915 C 1833.7604 566.4476 1834.6868 557.7561 1840.607 549.73566 C 1844.6864 544.20966 1850.1573 541.34576 1856.7549 541.086 C 1865.5654 540.73895 1874.4001 541.0433 1883.2238 540.9747 C 1885.9884 540.9533 1888.0194 541.10895 1888.0999 544.8275 C 1888.1774 548.40765 1886.9762 550.0461 1883.4042 550.0307 C 1882.493 550.0268 1881.58 550.395 1880.022 550.73206 C 1885.34 558.3114 1886.1853 566.2378 1884.0275 574.6401 C 1881.353 585.05505 1873.3754 591.0343 1863.3849 591.8271 C 1858.8018 592.1907 1853.9747 591.1113 1849.4506 589.94226 C 1846.9514 589.29645 1844.9004 588.5383 1843.5072 591.0903 C 1842.29 593.32025 1840.403 596.1785 1840.9772 598.1187 C 1841.5762 600.144 1844.6613 602.5928 1846.837 602.77856 C 1853.779 603.3712 1860.8391 602.5695 1867.7847 603.1417 C 1872.8865 603.562 1878.3166 604.405 1882.8334 606.62244 C 1892.9211 611.5745 1892.8485 625.4659 1888.4794 632.9459 C 1884.153 640.35266 1877.0664 644.2189 1869.0558 645.8119 C 1859.1154 647.78876 1849.346 647.3137 1840.4568 641.1774 C 1829.5989 633.6821 1829.0283 620.5301 1839.487 612.51215 C 1824.6453 605.29925 1828.8568 587.70746 1838.9978 581.23645 C 1838.2875 579.6383 1837.5668 578.0169 1836.579 576.0915 Z M 1846.0105 562.6456 C 1845.9972 563.30945 1846.0564 563.9842 1845.9597 564.6356 C 1844.6844 573.217 1849.656 579.78094 1856.6696 581.7798 C 1863.4353 583.70795 1870.577 579.8945 1872.9946 573.5254 C 1876.0913 565.3677 1873.3423 555.5629 1866.857 552.40625 C 1860.1715 549.15216 1849.824 549.9722 1846.0105 562.6456 Z M 1850.001 614.9994 C 1846.5552 617.6824 1842.856 620.1734 1843.793 625.4968 C 1844.7921 631.1737 1848.909 633.417 1853.7885 635.0441 C 1861.6284 637.6582 1868.712 635.5764 1875.1118 631.20026 C 1878.725 628.7296 1880.3153 624.28955 1878.7181 620.2991 C 1877.6923 617.73596 1874.4476 614.5842 1871.961 614.3639 C 1864.9648 613.7438 1857.8464 614.50384 1850.001 614.9994 Z" fill="#f26722"/>
      </g>
      <g id="Graphic_18">
        <path d="M 2237 548 C 2237 565.80505 2237 583.1101 2237 600.93176 C 2233.1619 600.2009 2227.9749 603.91034 2227.7996 597.21216 C 2222.4297 599.12616 2217.1228 602.1279 2211.5461 602.7634 C 2201.407 603.9188 2193.728 598.9107 2187.9888 590.5396 C 2180.1174 579.0581 2180.866 556.476 2192.4653 547.0533 C 2196.8743 543.47144 2201.7322 540.8233 2207.5994 541.0349 C 2213.457 541.24615 2219.3047 541.74146 2225.7412 542.1492 C 2225.7935 541.3696 2225.9822 539.8296 2225.9856 538.2891 C 2226.0112 526.7895 2226.101 515.28845 2225.9475 503.79086 C 2225.89 499.4768 2227.6704 498.0689 2231.8787 497.87744 C 2236.3835 497.6725 2237.111 499.62354 2237.067 503.5021 C 2236.9001 518.1664 2237 532.83374 2237 548 Z M 2209.0283 592.52716 C 2213.042 591.1748 2217.3372 590.32336 2220.9646 588.28406 C 2223.174 587.0419 2225.6284 584.0462 2225.7708 581.70435 C 2226.324 572.5988 2225.996 563.4399 2225.996 554.70715 C 2217.1133 550.6678 2208.646 549.7527 2200.438 554.9783 C 2198.8806 555.97 2196.9868 557.4793 2196.603 559.0756 C 2195.3904 564.1164 2193.958 569.35266 2194.1978 574.4385 C 2194.597 582.90314 2200.7744 591.7183 2209.0283 592.52716 Z" fill="#f26722"/>
      </g>
      <g id="Graphic_19">
        <path d="M 1216.0005 577.0057 C 1216.0005 583.50366 1215.7299 589.5191 1216.0889 595.4967 C 1216.3597 600.0081 1214.6871 601.58716 1210.3722 601.033 C 1208.7739 600.8277 1207.1272 600.99976 1205 600.99976 C 1205 590.9592 1205.1376 581.33795 1204.9331 571.72406 C 1204.8502 567.8234 1204.7164 563.6835 1203.3978 560.0965 C 1200.036 550.951 1192.9625 549.1489 1181.9454 553.616 C 1176.5978 555.7843 1173.3024 559.14575 1173.8141 565.9841 C 1174.5459 575.7612 1173.8489 585.6373 1174.0654 595.4645 C 1174.1703 600.2323 1171.982 601.0788 1167.732 601.1473 C 1163.2902 601.2187 1161.9496 599.5558 1161.9597 595.42316 C 1162.0342 565.09424 1162.0071 534.76514 1161.9918 504.43604 C 1161.9896 500.12256 1163.4165 497.7615 1168.3823 497.8815 C 1173.2834 497.99994 1174.0875 500.45496 1174.0493 504.55414 C 1173.9209 518.3814 1174.0005 532.2106 1174.0005 546.69525 C 1180.3477 542.84784 1186.6464 540.7949 1193.9384 540.8042 C 1204.323 540.8174 1213.513 547.23144 1214.9371 559.2397 C 1215.6151 564.957 1215.6658 570.7488 1216.0005 577.0057 Z" fill="#f26722"/>
      </g>
      <g id="Graphic_20">
        <path d="M 1474.9675 560.3895 C 1475.0042 564.32873 1474.9319 567.8492 1475.0552 571.3628 C 1475.1726 574.71356 1473.1877 575.0427 1470.5397 575.02844 C 1458.546 574.9639 1446.5518 574.99365 1434.5577 575.0137 C 1433.4445 575.0156 1432.3314 575.1894 1431.2278 575.2826 C 1431.8237 587.1401 1446.5404 597.07764 1458.864 590.6138 C 1460.3112 589.85474 1461.8749 589.2634 1463.1945 588.32654 C 1466.8052 585.7634 1468.8483 587.87805 1470.8868 590.5912 C 1473.3676 593.8931 1471.2115 596.2068 1468.8206 597.4951 C 1456.2362 604.2761 1438.2975 607.03265 1427.1788 593.3558 C 1423.7423 589.12854 1421.0264 583.42444 1420.2976 578.0806 C 1418.961 568.27765 1419.2699 558.09546 1427.0302 550.36005 C 1430.0178 547.38184 1433.6255 544.4133 1437.5145 543.0568 C 1454.8633 537.00586 1469.02 542.785 1474.9675 560.3895 Z M 1461.1384 565.99805 C 1463.6663 566.3467 1464.3496 565.1258 1463.9028 562.8344 C 1462.5754 556.0275 1454.8353 549.84216 1448.0151 550.604 C 1438.8546 551.62726 1432.3075 556.2075 1431.3828 565.9997 C 1441.007 565.9997 1450.6053 565.9997 1461.1384 565.99805 Z" fill="#f26722"/>
      </g>
      <g id="Graphic_21">
        <path d="M 2116.1968 565.6055 C 2119.036 554.0724 2124.4043 544.9524 2136.231 541.9823 C 2157.0918 536.7435 2173.336 548.6744 2171.9924 570.767 C 2171.7822 574.2226 2169.6274 575.04456 2166.5652 575.0269 C 2155.0776 574.9606 2143.5894 575.0007 2132.1013 575.00085 C 2130.5007 575.0009 2128.9001 575.00085 2126.8975 575.00085 C 2129.5098 584.4555 2134.4824 591.43384 2143.9905 592.17285 C 2149.2375 592.58075 2154.8818 590.12146 2160.0598 588.18634 C 2162.4836 587.2806 2164.2507 586.0813 2165.8796 588.7268 C 2167.4202 591.2289 2169.4097 593.9499 2165.9678 596.5334 C 2152.0813 606.9573 2126.9656 605.5627 2118.911 586.2792 C 2116.1526 579.67554 2115.796 572.9461 2116.1968 565.6055 Z M 2137.1501 552.35406 C 2131.8965 555.3585 2128.5178 559.6879 2127.5613 565.73425 C 2138.6873 565.73425 2149.7195 565.73425 2160.7886 565.73425 C 2159.026 554.63904 2149.7058 547.6232 2137.1501 552.35406 Z" fill="#f26722"/>
      </g>
      <g id="Graphic_22">
        <path d="M 1044.1838 589.6872 C 1037.1455 577.4086 1037.8453 560.4642 1046.8052 550.1262 C 1050.1787 546.23376 1055.6902 543.1919 1060.7627 541.9492 C 1081.511 536.8661 1097.4182 549.9521 1095.0302 572.023 C 1094.6774 575.2849 1092.5432 574.9983 1090.3678 574.99884 C 1079.0537 575.00195 1067.7396 575.0007 1056.4255 575.00085 C 1054.7782 575.00085 1053.1309 575.00085 1051.5112 575.00085 C 1050.8282 583.2677 1058.6207 589.8755 1065.7328 592.03156 C 1072.3301 594.0316 1077.9092 591.4834 1083.2036 588.2645 C 1087.8054 585.4666 1089.1293 588.7987 1091.1456 591.60455 C 1093.5458 594.9443 1090.4995 596.5704 1088.7802 597.4814 C 1075.2997 604.6242 1057.9202 606.75384 1045.9864 592.4383 C 1045.3696 591.69836 1044.9474 590.7963 1044.1838 589.6872 Z M 1083.9576 564.7388 C 1082.36 555.8839 1075.553 550.1956 1067.7722 550.6378 C 1059.898 551.0853 1050.2131 557.58 1051.4395 565.58844 C 1062.22 565.58844 1072.9851 565.58844 1083.9576 564.7388 Z" fill="#f26722"/>
      </g>
      <g id="Graphic_23">
        <path d="M 1717.254 556.37946 C 1723.2745 544.38574 1736.319 538.053 1749.8665 541.1506 C 1760.6926 543.62604 1770.3563 553.1492 1772.069 567.4268 C 1773.5867 580.0801 1769.4597 590.3499 1759.397 597.7461 C 1746.2783 607.3887 1727.9941 603.673 1719.0217 589.9219 C 1712.094 579.3044 1711.4323 568.15064 1717.254 556.37946 Z M 1757.0656 558.59644 C 1752.3945 553.6534 1747.2004 549.7262 1739.8763 551.6371 C 1729.5104 554.3417 1723.5521 562.7275 1725.0065 575.9929 C 1725.768 582.9377 1732.5024 590.5455 1739.1493 591.9618 C 1745.8951 593.39905 1753.3755 590.2067 1757.4462 584.1116 C 1762.9817 575.8228 1762.2354 567.47974 1757.0656 558.59644 Z" fill="#f26722"/>
      </g>
      <g id="Graphic_24">
        <path d="M 951.7719 552.088 C 950.1413 552.0161 948.9761 552.00574 947.8109 552.00006 C 942.2779 551.9732 940.3707 549.51856 942.1691 544.2477 C 942.51 543.2488 944.2199 542.284 945.4185 542.1039 C 947.6804 541.7639 950.0298 542.0057 952.9993 542.0057 C 952.9993 535.665 952.3588 529.4799 953.1771 523.4942 C 954.0162 517.3552 955.5219 511.06366 958.0854 505.4559 C 963.1004 494.4855 985.4531 494.2525 992.6444 503.01566 C 995.3462 506.30795 993.1556 508.3499 991.2382 510.0823 C 990.148 511.0674 987.7103 511.34546 986.1832 510.9001 C 982.9742 509.96445 980.0631 507.5712 976.854 507.16525 C 970.6691 506.3827 965.5846 510.83044 965.0577 517.00275 C 964.3707 525.0502 964.0533 533.1291 963.5292 542.00085 C 969.2307 542.00085 974.325 542.2133 979.392 541.93286 C 983.365 541.7129 984.0901 543.5361 984.0927 547.0037 C 984.0952 550.4825 983.3439 552.2902 979.3826 552.06616 C 974.442 551.78686 969.4736 551.9991 964.0153 551.9991 C 964.0153 568.46765 964.0153 584.51886 964.0153 600.37085 C 963.2171 600.6929 962.9313 600.89636 962.6337 600.91534 C 952.9997 601.5303 952.9995 601.52765 952.9993 591.8547 C 952.9991 580.20166 953.028 568.5484 952.9653 556.89575 C 952.9568 555.3131 952.4912 553.733 951.7719 552.088 Z" fill="#f26722"/>
      </g>
      <g id="Graphic_25">
        <path d="M 1945.0007 594.7897 C 1944.677 597.49365 1946.167 600.707 1942.1184 600.9652 C 1938.6661 601.18536 1934.792 601.87695 1934.8936 596.1832 C 1927.5942 601.756 1919.9817 604.59314 1910.9314 602.0496 C 1904.372 600.2061 1900.5422 595.58966 1899.153 589.56036 C 1894.4912 569.3311 1911.5758 561.1056 1926.5574 563.7937 C 1928.7893 564.19415 1931.0675 564.3359 1933.3638 564.6019 C 1935.5236 555.77454 1932.0201 550.45087 1924.835 550.31396 C 1920.4006 550.22955 1915.9634 552.19556 1911.4677 552.6513 C 1909.0916 552.8922 1905.641 552.71356 1904.3354 551.24676 C 1901.4841 548.04333 1902.7216 545.2663 1906.9371 543.55145 C 1915.3063 540.14703 1924.1412 540.6251 1932.8126 541.18945 C 1938.4954 541.55926 1943.654 548.34235 1943.9672 554.54224 C 1944.4176 563.46246 1944.717 572.3913 1944.9788 581.31946 C 1945.1057 585.64734 1945.0007 589.98206 1945.0007 594.7897 Z M 1909.2549 586.72076 C 1913.0017 593.011 1916.668 594.4488 1923.6344 592.06634 C 1925.9043 591.29 1928.025 590.0546 1930.1747 588.95306 C 1935.8928 586.0231 1934.0923 580.6008 1933.675 576.1706 C 1933.5352 574.6875 1929.8431 572.8475 1927.5308 572.38104 C 1917.7809 570.4144 1907.6968 574.39465 1909.2549 586.72076 Z" fill="#f26722"/>
      </g>
      <g id="Graphic_26">
        <path d="M 1501.9629 541.93616 C 1508.8146 541.6623 1515.3105 540.6971 1521.609 541.4291 C 1527.0558 542.0622 1531.8514 549.2207 1531.9332 555.4848 C 1532.1283 570.4371 1531.9962 585.3937 1531.9962 600.74225 C 1527.9314 600.7615 1523.3224 603.17206 1522.8865 597.5947 C 1517.2756 599.3935 1511.7238 602.41815 1506.0128 602.7567 C 1492.2551 603.5723 1487.1462 595.68866 1486.2043 584.8173 C 1485.3323 574.754 1490.8135 566.41876 1502.437 564.23193 C 1508.495 563.0922 1514.9441 564.0311 1521.376 564.0311 C 1523.526 553.28265 1518.1449 549.1263 1510.1711 550.94196 C 1505.5778 551.988 1500.789 552.2386 1496.2573 553.4698 C 1493.3239 554.2667 1492.503 553.5544 1491.8457 550.84204 C 1491.222 548.269 1489.5664 545.58106 1493.05 544.1388 C 1495.7146 543.03546 1498.6863 542.67346 1501.9629 541.93616 Z M 1498.3322 577.19116 C 1493.7998 586.89606 1500.7118 594.552 1507.9216 592.8307 C 1512.2084 591.80725 1516.3782 589.57916 1520.0999 587.13135 C 1523.0514 585.19025 1522.9519 574.91016 1520.3583 573.7838 C 1515.0334 571.4711 1504.37 570.1585 1498.3322 577.19116 Z" fill="#f26722"/>
      </g>
      <g id="Graphic_27">
        <path d="M 2017 574.00366 C 2016.9999 581.8272 2016.7715 589.16126 2017.0826 596.4724 C 2017.279 601.0878 2014.6963 600.99225 2011.4176 601.0704 C 2007.907 601.154 2005.7946 600.70306 2005.9132 596.3058 C 2006.1871 586.15894 2006.295 575.9881 2005.9015 565.8491 C 2005.6124 558.3961 2003.2078 553.1192 1994.9476 551.4092 C 1990.5818 550.5053 1977.739 555.25635 1975.6318 559.05725 C 1974.9763 560.2397 1975.031 561.9015 1975.025 563.345 C 1974.9794 574.1649 1974.8016 584.99054 1975.0967 595.8026 C 1975.216 600.16754 1973.5868 601.1882 1969.5845 601.105 C 1965.856 601.02734 1963.8093 600.6136 1963.8912 595.9771 C 1964.1737 580.0016 1963.9528 564.0177 1964.055 548.0379 C 1964.069 545.84204 1962.6661 542.5368 1966.5748 542.0873 C 1969.8544 541.71027 1973.5931 541.1956 1973.5386 547.1105 C 1976.4973 545.6599 1978.8956 544.5283 1981.2544 543.3193 C 1987.9373 539.8937 1995.095 540.2422 2001.994 541.6456 C 2012.1252 543.7066 2015.9614 551.5744 2016.9358 561.5254 C 2017.3232 565.4826 2016.9998 569.50946 2017 574.00366 Z" fill="#f26722"/>
      </g>
      <g id="Graphic_28">
        <path d="M 1562.9999 568.0858 C 1562.9998 577.5656 1562.7633 586.56634 1563.0984 595.5457 C 1563.2686 600.1055 1561.5826 601.15466 1557.3389 601.1351 C 1553.2302 601.1162 1551.85 599.96234 1551.9095 595.7278 C 1552.1344 579.7454 1551.9664 563.7578 1552.0358 547.7726 C 1552.0463 545.3618 1550.8804 542.1247 1555.332 541.96423 C 1558.8822 541.83624 1561.856 542.06195 1561.0573 547.6528 C 1568.9159 542.7049 1576.6305 540.32635 1585.367 540.8767 C 1594.6625 541.46216 1603.1014 547.3646 1603.7963 556.5633 C 1604.8307 570.2557 1604.747 584.0382 1604.9421 597.7852 C 1605.0104 602.58966 1601.0433 600.6298 1598.6002 600.96875 C 1595.6834 601.37335 1593.8901 600.5595 1593.9457 596.99146 C 1594.1038 586.8364 1594.264 576.6682 1593.9154 566.5227 C 1593.6403 558.5205 1590.9862 553.77856 1583.1454 551.57654 C 1578.7441 550.34045 1565.0527 555.23035 1563.5327 559.25775 C 1562.5922 561.7498 1563.1272 564.7988 1562.9999 568.0858 Z" fill="#f26722"/>
      </g>
      <g id="Graphic_29">
        <path d="M 1329.6877 553.72125 C 1339.7733 538.6114 1362.803 536.2728 1374.4006 548.84985 C 1376.6766 551.3181 1377.93 553.8922 1374.9899 556.3373 C 1372.4248 558.4705 1369.6208 560.832 1366.1946 556.80426 C 1360.9742 550.6673 1353.9806 550.82636 1347.1876 553.14404 C 1340.8848 555.2945 1335.6709 563.6328 1335.8818 570.0992 C 1336.2766 582.19995 1339.7064 588.0211 1349.5112 591.14166 C 1355.8163 593.1483 1361.3394 592.0189 1366.242 587.3746 C 1368.045 585.6667 1370.3951 583.6502 1372.5907 583.53156 C 1374.2596 583.44134 1376.7068 585.8294 1377.5985 587.6933 C 1378.1444 588.8347 1376.769 591.3607 1375.6361 592.764 C 1368.8441 601.17615 1359.7 604.4831 1349.3427 602.5556 C 1336.6569 600.1948 1328.0598 592.7422 1324.9592 579.6761 C 1322.7621 570.4164 1324.099 561.89026 1329.6877 553.72125 Z" fill="#f26722"/>
      </g>
      <g id="Graphic_30">
        <path d="M 1120.4961 552.2127 C 1116.7959 556.4216 1117.4631 559.3424 1122.4397 562.0869 C 1127.8718 565.08276 1133.443 567.83966 1138.7733 571.0043 C 1146.8834 575.8196 1150.3684 584.6947 1146.0857 592.7284 C 1142.1879 600.0402 1131.274 604.92566 1122.6729 602.7554 C 1118.7766 601.77216 1115.0221 600.1646 1111.2808 598.6489 C 1107.5624 597.1425 1105.7485 594.7926 1107.7834 590.53436 C 1109.9227 586.05756 1112.7645 588.3215 1115.6481 589.2512 C 1119.7767 590.5825 1123.9271 592.54926 1128.1241 592.70154 C 1130.6334 592.7926 1134.0344 590.49396 1135.6163 588.26355 C 1137.5361 585.55695 1135.0983 582.8075 1132.6724 581.273 C 1127.0316 577.7048 1121.2092 574.4202 1115.4225 571.08685 C 1107.0974 566.2914 1103.9648 556.1351 1109.1218 548.2668 C 1110.9362 545.4985 1114.3387 542.90784 1117.5051 542.05835 C 1125.523 539.90735 1133.6525 539.9134 1141.1787 544.5499 C 1144.5123 546.60364 1144.3159 548.92956 1142.6101 551.9115 C 1140.914 554.8763 1138.8348 555.6476 1135.7965 553.97186 C 1131.0885 551.37524 1126.2354 549.6238 1120.4961 552.2127 Z" fill="#f26722"/>
      </g>
      <g id="Graphic_31">
        <path d="M 2093.9639 542.0002 C 2096.79 542.00037 2099.1235 541.964 2101.455 542.0084 C 2106.0535 542.0961 2107.5005 544.4416 2105.1504 548.26886 C 2097.565 560.62177 2089.886 572.91724 2082.2554 585.2425 C 2081.2415 586.8801 2080.2996 588.56244 2078.869 591.0002 C 2085.1995 591.0002 2090.7534 590.9983 2096.3071 591.0006 C 2103.1018 591.0034 2103.105 591.0051 2102.9934 597.9245 C 2102.9802 598.7402 2102.9104 599.555 2102.8333 601 C 2093.1394 601 2083.5361 601.00006 2073.9329 601 C 2071.4336 600.99994 2068.9336 601.0439 2066.4355 600.9898 C 2061.8894 600.8915 2060.495 598.4801 2062.9229 594.6523 C 2069.4666 584.3345 2076.1199 574.08655 2082.707 563.7962 C 2085.057 560.12537 2087.3423 556.4133 2090.1086 551.9996 C 2082.0898 551.9996 2074.8467 551.8295 2067.6167 552.06604 C 2063.5632 552.1987 2062.955 549.95435 2063.0017 546.8187 C 2063.0457 543.869 2063.7102 541.83887 2067.4802 541.93274 C 2076.1387 542.1485 2084.8062 542.00055 2093.9639 542.0002 Z" fill="#f26722"/>
      </g>
      <g id="Graphic_32">
        <path d="M 1665.0002 569 C 1665.0002 592.65576 1665.0687 615.812 1664.8798 638.96625 C 1664.8633 640.9791 1663.604 644.1906 1662.1343 644.7408 C 1658.6517 646.0444 1656.8788 644.27124 1656.9164 640.1152 C 1657.1005 619.7931 1656.9998 599.4684 1656.9998 579.14465 C 1656.9996 551.1579 1656.9966 523.1711 1657.0059 495.1843 C 1657.0067 492.73267 1656.4366 490.1255 1660.4214 489.9247 C 1664.4315 489.72266 1665.07 491.5985 1665.0547 495.0349 C 1664.9507 518.5233 1665.0002 542.0125 1665.0002 565.5014 C 1665.0002 566.5009 1665.0002 567.5005 1665.0002 569 Z" fill="#f26722"/>
      </g>
      <g id="Graphic_33">
        <path d="M 1403.9999 566 C 1403.9998 576.4905 1403.8037 586.48645 1404.0865 596.4689 C 1404.217 601.07715 1401.7036 600.9943 1398.4197 601.07056 C 1394.9097 601.15204 1392.8925 600.6958 1392.9152 596.3072 C 1393.075 565.3376 1393.0719 534.36646 1392.9159 503.39685 C 1392.8945 499.16656 1394.5505 497.9745 1398.3937 497.93854 C 1402.4119 497.901 1404.0581 499.51425 1404.0406 503.55936 C 1403.9513 524.20593 1403.9996 544.8531 1403.9999 566 Z" fill="#f26722"/>
      </g>
      <g id="Graphic_34">
        <path d="M 1268.0005 640.64624 C 1267.9999 592.072 1268.0663 543.963 1267.9011 495.8548 C 1267.8839 490.8505 1269.374 489.00647 1274.7302 490.3537 C 1274.8097 491.53754 1274.9874 492.95325 1274.9878 494.369 C 1275.0024 542.8107 1275.008 591.25244 1274.9731 639.69415 C 1274.9717 641.8382 1275.8835 644.6442 1272.209 644.995 C 1269.3187 645.271 1267.6935 644.2598 1268.0005 640.64624 Z" fill="#f26722"/>
      </g>
      <g id="Graphic_35">
        <path d="M 1792.8181 542.00116 C 1794.9937 543.23395 1796.7454 544.4665 1799.0747 546.1055 C 1804.5676 540.4324 1812.6086 540.61725 1820.6475 541.04565 C 1823.8682 541.2173 1826.5503 542.35114 1825.9783 546.4586 C 1825.3058 551.2872 1822.8427 553.0509 1818.7141 552.36597 C 1812.34 551.30853 1806.0532 551.54114 1801.5366 557.0809 C 1800.2197 558.6961 1799.1534 561.04535 1799.111 563.082 C 1798.8783 574.23944 1798.8488 585.4074 1799.0775 596.56506 C 1799.163 600.7355 1797.0883 601.17224 1793.8154 601.0428 C 1790.7662 600.92224 1787.8635 601.5364 1787.9221 596.7009 C 1788.1256 579.8765 1788.0635 563.0478 1787.9484 546.22174 C 1787.9254 542.88214 1789.2314 541.6398 1792.8181 542.00116 Z" fill="#f26722"/>
      </g>
      <g id="Graphic_36">
        <path d="M 994.9993 570 C 994.9993 562.3481 995.0554 555.19544 994.9716 548.0445 C 994.9382 545.1918 995.1794 542.6809 998.6108 542.02234 C 1002.337 541.3073 1003.811 542.32654 1005.3526 546.6326 C 1016.5309 539.54596 1027.2906 538.65295 1032.8676 544.5535 C 1032.1136 547.155 1031.3214 549.88873 1030.4485 552.90125 C 1027.4586 552.60455 1024.3198 551.6971 1021.3909 552.1488 C 1017.4769 552.75256 1013.202 553.6681 1010.0817 555.86774 C 1007.8657 557.4299 1006.2798 561.2996 1006.1782 564.2012 C 1005.7548 576.2887 1006.0001 588.3996 1006.0001 600.3103 C 1005.2845 600.6485 1005.0016 600.8996 1004.7194 600.8986 C 995.9998 600.8698 994.8146 603.4108 994.9814 591.4567 C 995.079 584.47235 994.9993 577.48566 994.9993 570 Z" fill="#f26722"/>
      </g>
      <g id="Graphic_37">
        <path d="M 2036.0001 567 C 2036.0006 560.00806 2036.1357 553.5123 2035.9567 547.0253 C 2035.826 542.28656 2038.493 541.9402 2042.2706 541.8945 C 2046.0764 541.8485 2047.0977 543.2613 2047.065 546.881 C 2046.9166 563.35925 2046.8685 579.8414 2047.0874 596.31805 C 2047.146 600.7222 2045.067 601.1439 2041.5715 601.0706 C 2038.2786 601.0015 2035.7773 601.0594 2035.9138 596.4616 C 2036.2002 586.8154 2036.0005 577.1547 2036.0001 567 Z" fill="#f26722"/>
      </g>
      <g id="Graphic_38">
        <path d="M 2036.2606 503.25775 C 2041.6433 500.0615 2045.4216 500.424 2048.0273 504.7093 C 2049.9563 507.8813 2049.64 511.1171 2046.6104 513.96875 C 2043.5688 516.8318 2040.41 517.0001 2037.3208 514.72314 C 2033.2825 511.74646 2033.0754 508.6148 2036.2606 503.25775 Z" fill="#f26722"/>
      </g>
      <g id="Graphic_51">
        <path d="M 559.0283 622.0002 C 533.3558 620.7732 514.1246 609.5473 502.12375 587.2239 C 489.21506 563.2116 476.9058 538.8774 464.28265 514.71106 C 454.0056 495.0362 443.64044 475.40735 433.33597 455.74676 C 428.4555 446.43497 432.69553 436.8568 440.68744 435.00635 C 444.86646 434.0388 450.25925 433.8701 453.8986 435.71637 C 483.5955 450.7819 513.00464 466.41446 542.50794 481.8618 C 555.37476 488.59854 568.13086 495.56256 581.1622 501.9654 C 600.7046 511.5672 613.3092 526.55225 618.3966 547.8037 C 623.6058 569.56396 615.2372 595.35944 596.31244 609.415 C 585.25934 617.62415 573.14636 621.8234 559.0283 622.0002 Z" fill="#f26722"/>
      </g>
      <g id="Graphic_52">
        <path d="M 618.99414 228.2487 C 621.1665 239.60373 619.6969 250.18884 616.095 260.57037 C 610.634 276.31042 600.5041 288.1922 585.8573 295.97717 C 561.77045 308.7797 537.5321 321.29715 513.3573 333.93417 C 493.5319 344.29758 473.61865 354.49792 453.9323 365.119 C 447.7999 368.4275 438.9998 366.8661 435.61893 363.1928 C 431.1042 358.2877 430.04327 350.449 433.3868 344.1384 C 439.8081 332.0186 446.26733 319.91873 452.64435 307.7757 C 464.034 286.0876 475.3244 264.3473 486.7549 242.6808 C 493.07166 230.70737 498.6803 218.22745 506.2094 207.05487 C 520.7228 185.51813 542.2714 175.93971 567.52405 179.42285 C 593.9253 183.0644 611.50726 198.91394 618.1833 225.5082 C 618.3801 226.292 618.7178 227.0404 618.99414 228.2487 Z" fill="#f26722"/>
      </g>
      <g id="Graphic_53">
        <path d="M 347.28458 314.68506 C 352.767 324.94653 357.97937 334.9251 363.32855 344.8298 C 366.0089 349.7927 365.53787 357.146 361.9948 361.47827 C 358.0584 366.2914 351.5804 368.83765 346.09866 366.41574 C 337.02536 362.40717 328.2737 357.6574 319.45697 353.0842 C 306.7117 346.47336 294.03867 339.7234 281.31796 333.065 C 259.05304 321.4109 236.84337 309.64856 214.48071 298.18484 C 197.55577 289.50864 185.25665 276.92844 179.82394 258.42364 C 172.8912 234.8095 177.1952 213.43204 194.76852 195.95361 C 212.67342 178.14543 237.70213 174.43663 260.7135 183.29102 C 276.77698 189.47194 287.8104 200.75392 295.54614 215.93866 C 306.73144 237.89456 318.3728 259.61813 329.8167 281.44232 C 335.57147 292.41705 341.31976 303.3951 347.28458 314.68506 Z" fill="#f26722"/>
      </g>
      <g id="Graphic_54">
        <path d="M 194.23593 517.26514 C 203.95003 506.4386 216.99661 501.4518 229.08118 495.0358 C 253.16126 482.25104 277.3833 469.7337 301.5468 457.1061 C 315.42923 449.8513 329.2929 442.56015 343.20398 435.36066 C 348.69373 432.5195 357.0952 433.7124 361.17227 437.7093 C 365.43668 441.88986 366.31805 449.23453 363.09994 455.4601 C 350.2065 480.40326 337.28842 505.3338 324.31854 530.2373 C 314.1427 549.7759 304.40933 569.5714 293.49847 588.69305 C 283.07013 606.9692 267.3069 618.1515 245.84987 621.1758 C 233.5051 622.91565 221.9546 621.3714 211.07848 615.91394 C 193.27753 606.98175 181.40933 593.1499 177.91978 572.9736 C 174.26831 551.86096 179.90613 533.4759 194.23593 517.26514 Z" fill="#f26722"/>
      </g>
      <g id="Graphic_55">
        <path d="M 401.05765 453.9476 C 406.97894 454.8669 410.43314 457.89865 412.12585 463.33655 C 421.6809 494.0317 431.39447 524.67737 440.973 555.36523 C 446.8273 574.1214 453.28647 592.733 458.10403 611.7565 C 463.1351 631.62305 457.9478 649.8353 445.4773 666.0688 C 436.26 678.0673 423.96933 685.228 409.3866 687.6382 C 389.91287 690.85675 372.06165 686.5911 357.26065 672.7362 C 341.22626 657.72675 335.47998 638.8463 337.09436 617.4273 C 337.39563 613.4303 338.61383 609.4457 339.8168 605.5823 C 349.32907 575.03394 358.9897 544.5317 368.50153 513.98315 C 373.8119 496.92807 378.9075 479.80624 384.13754 462.726 C 386.03686 456.5233 394.5981 451.9984 401.05765 453.9476 Z" fill="#f26722"/>
      </g>
      <g id="Graphic_56">
        <path d="M 485.9183 422.0427 C 477.32336 419.34787 469.16956 416.57745 460.934 414.0762 C 453.04776 411.681 451.49777 406.0518 451.11194 400.4299 C 450.68927 394.2709 454.97376 388.49347 460.84357 386.636 C 493.2112 376.39346 525.5989 366.2142 557.9947 356.0612 C 574.5826 350.8625 591.0297 345.0894 607.852 340.79706 C 627.2461 335.84857 645.5508 339.5824 661.9011 351.43076 C 674.9731 360.90335 683.35315 373.84866 685.5405 389.61017 C 687.9658 407.0857 685.3273 423.81876 673.4061 438.29605 C 663.5919 450.21457 651.13495 457.2262 636.5221 460.66184 C 623.3726 463.7534 610.6174 461.1975 597.91534 457.12195 C 563.2655 446.00424 528.4974 435.2553 493.7747 424.3644 C 491.2965 423.5871 488.8076 422.84387 485.9183 422.0427 Z" fill="#f26722"/>
      </g>
      <g id="Graphic_57">
        <path d="M 361.6827 265.29724 C 358.4843 255.3293 355.44717 245.72324 352.55637 236.07335 C 347.4312 218.96477 341.4763 202.03276 337.62906 184.6375 C 334.8417 172.03427 336.95776 159.05936 342.9917 147.26296 C 351.69797 130.24206 364.8044 118.68154 383.7794 113.8752 C 408.92737 107.5053 436.07516 118.24999 449.7757 140.40454 C 461.8487 159.92716 461.87174 180.20581 454.9172 201.523 C 442.67355 239.05284 431.07935 276.79474 419.25537 314.4611 C 417.0674 321.43115 415.10916 328.473 412.9904 335.46518 C 409.42236 347.24054 398.39075 349.93814 390.1131 344.83496 C 387.45743 343.19775 385.15396 339.85507 384.17383 336.81418 C 376.54804 313.1552 369.28503 289.3792 361.6827 265.29724 Z" fill="#f26722"/>
      </g>
      <g id="Graphic_58">
        <path d="M 285.30377 370.68564 C 301.94824 375.9435 318.2525 380.9628 334.5464 386.01566 C 340.322 387.80673 344.42087 391.3131 344.9523 397.65472 C 345.66614 406.17304 343.2447 411.22073 335.96097 413.8762 C 323.9177 418.2669 311.62207 421.97723 299.38382 425.8183 C 284.65753 430.4403 269.8758 434.88547 255.12573 439.432 C 232.46153 446.41803 209.9875 454.1153 187.08624 460.2085 C 168.21329 465.2299 150.44925 460.6892 134.66907 449.14346 C 116.41644 435.78876 108.70948 417.2818 110.17729 395.20548 C 111.05869 381.949 116.11014 370.00015 125.41756 359.93668 C 133.9144 350.74957 143.92654 344.3194 155.91675 341.10767 C 170.11313 337.305 183.99031 338.74854 197.93758 343.34103 C 225.7152 352.48746 253.68938 361.03714 281.58975 369.80984 C 282.67398 370.1508 283.83453 370.249 285.30377 370.68564 Z" fill="#f26722"/>
      </g>
    </g>
  </g>
</svg>
