<svg xmlns="http://www.w3.org/2000/svg" xmlns:xlink="http://www.w3.org/1999/xlink" version="1.1" id="Layer_1" x="0px" y="0px" viewBox="-40.5 73.5 41 41" style="enable-background:new -40.5 73.5 41 41;" xml:space="preserve">
<style type="text/css">
	.st0{fill:#999B98;}
</style>
<path class="st0" d="M0,97.7c-0.2-0.5-0.5-0.9-0.8-1.3c-2.2-2.9-7.5-6.2-9.6-7.1c-0.9-0.4-1.8-0.7-2.7-1.2c-1.1-0.7-1.9-1.8-3-2.5  c-0.8-0.5-1.7-0.8-2.7-0.9c-0.2,0-0.3-0.1-0.3-0.3v-2.2c0-0.2,0.1-0.3,0.3-0.4c2-0.6,3.3-2.5,2.9-4.7c-0.3-1.6-1.6-3-3.2-3.3  c-2.7-0.6-5,1.5-5,4.1c0,0.5,0.4,0.9,0.9,0.9c0.5,0,0.9-0.4,0.9-0.9c0-0.8,0.3-1.6,0.9-2c2.4-1.5,4.9,1.1,3.5,3.5  c-0.4,0.6-1.2,0.9-2,0.9c-0.5,0-0.9,0.4-0.9,0.9v3.3c0,0.2-0.1,0.3-0.3,0.3c-1.1,0.1-2,0.4-2.8,0.9c-1.1,0.7-1.9,1.8-3,2.5  c-0.8,0.5-1.8,0.9-2.7,1.2c-2,0.9-7.3,4.2-9.5,7.1c-0.4,0.4-0.6,0.9-0.8,1.3c-1.9,3.7,2.5,5,3.3,4.3c0.6-0.5,1.1-1.2,1.4-2  c0.1-0.1,0.1-0.1,0.2-0.1h4.9c0.2,0,0.4,0.2,0.4,0.4v10.7c0,0.1,0.1,0.3,0.1,0.4c1.4,1.9,4.5,3,9.7,3c4.6,0,8.4-2.3,9.5-3  c0.2-0.1,0.3-0.3,0.3-0.5v-10.7c0-0.2,0.2-0.4,0.4-0.4h4.9c0.1,0,0.2,0.1,0.3,0.2c0.4,0.8,0.7,1.5,1.3,1.9  C-2.4,102.7,1.9,101.4,0,97.7z M-6,98.2h-3.8c-0.2,0-0.4-0.2-0.4-0.4v-1.9c0-0.2-0.2-0.4-0.4-0.4h-18.7c-0.2,0-0.4,0.2-0.4,0.4v1.9  c0,0.2-0.2,0.4-0.4,0.4h-4c-0.1,0-0.2-0.1-0.2-0.2c0.6-1,1.1-2.1,1.8-2.9c2.2-2.9,5.5-4.8,9.1-5.3c1-0.1,5.2-0.1,5.9-0.1  c3.9,0.2,7.8,2.2,10.1,5.4c0.6,0.9,1.2,1.8,1.7,2.8C-5.6,97.9-5.8,98.2-6,98.2z"/>
</svg>