<svg xmlns="http://www.w3.org/2000/svg" viewBox="-29 57.400001525878906 74 73.20000457763672"><g xmlns="http://www.w3.org/2000/svg">
	<polygon class="st0" points="29.6,121.2 -13.6,121.2 -16.4,130.6 32.4,130.6  "></polygon>
	<polygon class="st0" points="32.8,81 32.8,81 32.8,65.1 22.5,65.1 22.5,69 28.3,74.7 28.3,76.7 8,57.4 -29,92.6 -23.3,97.8    -23.3,121.2 -13.6,121.2 -13.6,89.3 29.6,89.3 29.6,121.2 39.3,121.2 39.3,97.8 45,92.6  "></polygon>
	<rect x="-9.8" y="93.5" class="st0" width="35.7" height="3.7"></rect>
	<rect x="-9.8" y="99.8" class="st0" width="35.7" height="3.7"></rect>
	<rect x="-9.8" y="106.2" class="st0" width="35.7" height="3.7"></rect>
	<rect x="-9.8" y="112.6" class="st0" width="35.7" height="3.7"></rect>
</g></svg>