<svg xmlns="http://www.w3.org/2000/svg" xmlns:xlink="http://www.w3.org/1999/xlink" version="1.1" id="Layer_1" x="0px" y="0px" viewBox="-6 74.5 84 36.8" style="enable-background:new -6 74.5 84 36.8;" xml:space="preserve">
<style type="text/css">
	.st0{fill:#999B98;}
</style>
<path class="st0" d="M46.5,111.2h2.6h21.7h2.6v-10.5H46.5V111.2z M57.5,104.7h5.4c0.4,0,0.7,0.3,0.7,0.7s-0.3,0.7-0.7,0.7h-5.4  c-0.4,0-0.7-0.3-0.7-0.7C56.8,105,57.1,104.7,57.5,104.7z"/>
<path class="st0" d="M46.5,90.3v9.1h26.9v-9.1v-0.7H46.5V90.3z M57.5,94.2h5.4c0.4,0,0.7,0.3,0.7,0.7s-0.3,0.7-0.7,0.7h-5.4  c-0.4,0-0.7-0.3-0.7-0.7C56.8,94.5,57.1,94.2,57.5,94.2z"/>
<path class="st0" d="M-6,77.8h5.2v33.5h3.9L3.1,77.8h43.4v10.5h26.9V77.8H78v-3.3H-6V77.8z M57.5,83h5.4c0.4,0,0.7,0.3,0.7,0.7  s-0.3,0.7-0.7,0.7h-5.4c-0.4,0-0.7-0.3-0.7-0.7C56.8,83.4,57.1,83,57.5,83z"/>
</svg>