<svg xmlns="http://www.w3.org/2000/svg" xmlns:xlink="http://www.w3.org/1999/xlink" version="1.1" id="Layer_1" x="0px" y="0px" viewBox="-6 30 83.9 128" style="enable-background:new -6 30 83.9 128;" xml:space="preserve">
<style type="text/css">
	.st0{fill:#999B98;}
</style>
<g>
	<path class="st0" d="M29.5,82.9l-4.9-11.8C22.1,65,20,54.6,20,48v-2v-8c0.5,0,1-0.5,1-1v-4c0-0.5-0.5-1-1-1c0-1.1-0.9-2-2-2h-8   c-1.1,0-2,0.9-2,2c-0.5,0-1,0.5-1,1v4c0,0.5,0.5,1,1,1v8v2C8,54.6,6,65,3.5,71.1l-4.9,11.8C-3.9,89-6,96.8-6,106v40c0,0,0,0,0,0v8   c0,2.2,1.8,4,4,4h8h8h8h8c2.2,0,4-1.8,4-4v-8v-12v-28C34,96.8,32,89,29.5,82.9z M30,134H-2v-28h32V134z"/>
</g>
<path class="st0" d="M72.6,155.4h-1.3c-0.7-0.1-4.9-0.3-6.5-2.1c-1-1.2-1-4.6-1-5.7l0.3-21.4c8.4-1.1,13.9-8.7,13.9-18  c0-9.4-1.5-21.1-1.5-21.2c-0.1-0.5-0.5-0.9-1.1-0.9H48.6c-0.5,0-1,0.4-1.1,0.9c0,0.1-1.5,11.9-1.5,21.2c0,9.2,5.5,16.9,13.9,18  l0.3,21.4c0,1.1-0.1,4.6-1,5.7c-1.6,1.8-5.8,2-6.5,2.1h-1.3c-1.2,0-2.1,0.7-2.1,1.6c0,0.6,0.5,1.1,1.1,1.1h23.3  c0.6,0,1.1-0.5,1.1-1.1C74.7,156.1,73.8,155.4,72.6,155.4z M49.6,88.1h24.9c0.2,2,0.8,7.2,1.2,12.7H48.4  C48.7,95.3,49.3,90.2,49.6,88.1z"/>
</svg>